<?xml version="1.0" encoding="UTF-8" standalone="no"?>
<!-- Created with Inkscape (http://www.inkscape.org/) -->

<svg
   xmlns:dc="http://purl.org/dc/elements/1.1/"
   xmlns:cc="http://creativecommons.org/ns#"
   xmlns:rdf="http://www.w3.org/1999/02/22-rdf-syntax-ns#"
   xmlns:svg="http://www.w3.org/2000/svg"
   xmlns="http://www.w3.org/2000/svg"
   xmlns:sodipodi="http://sodipodi.sourceforge.net/DTD/sodipodi-0.dtd"
   xmlns:inkscape="http://www.inkscape.org/namespaces/inkscape"
   width="85mm"
   height="55mm"
   viewBox="0 0 301.1811 194.88189"
   id="svg2"
   version="1.1"
   inkscape:version="0.91 r13725"
   sodipodi:docname="drawing.svg">
  <defs
     id="defs4">
    <inkscape:perspective
       sodipodi:type="inkscape:persp3d"
       inkscape:vp_x="58.14886 : 879.56202 : 1"
       inkscape:vp_y="0 : 20.362736 : 0"
       inkscape:vp_z="802.24336 : 879.56203 : 1"
       inkscape:persp3d-origin="430.19611 : 875.99053 : 1"
       id="perspective3340" />
  </defs>
  <sodipodi:namedview
     id="base"
     pagecolor="#ffffff"
     bordercolor="#666666"
     borderopacity="1.0"
     inkscape:pageopacity="0.0"
     inkscape:pageshadow="2"
     inkscape:zoom="0.97821166"
     inkscape:cx="-37.679238"
     inkscape:cy="89.30003"
     inkscape:document-units="px"
     inkscape:current-layer="layer1"
     showgrid="false"
     inkscape:snap-text-baseline="true"
     units="mm"
     inkscape:window-width="1366"
     inkscape:window-height="692"
     inkscape:window-x="0"
     inkscape:window-y="24"
     inkscape:window-maximized="1" />
  <metadata
     id="metadata7">
    <rdf:RDF>
      <cc:Work
         rdf:about="">
        <dc:format>image/svg+xml</dc:format>
        <dc:type
           rdf:resource="http://purl.org/dc/dcmitype/StillImage" />
        <dc:title />
      </cc:Work>
    </rdf:RDF>
  </metadata>
  <g
     inkscape:label="Layer 1"
     inkscape:groupmode="layer"
     id="layer1"
     transform="translate(0,-857.48031)">
    <path
       transform="matrix(0.36929645,0,0,0.3949309,15.663153,592.26491)"
       style="fill:#ff0000;fill-rule:evenodd;stroke:#000000;stroke-width:1px;stroke-linecap:butt;stroke-linejoin:miter;stroke-opacity:1"
       d="m 419.50247,919.4505 c 2.29074,11.45372 -14.30921,8.73872 -19.03683,3.80735 -12.81155,-13.36372 -2.38819,-34.23632 11.42213,-41.88101 24.70344,-13.67456 54.35521,2.56202 64.72519,26.65161 15.21837,35.35245 -7.48522,74.80981 -41.88109,87.56937 -45.84429,17.00648 -95.3918,-12.38649 -110.41355,-57.11057 -18.90334,-56.2807 17.27429,-116.03653 72.34005,-133.25773 66.69202,-20.85719 136.71699,22.15391 156.10192,87.56953 22.84447,77.09005 -27.02833,157.41975 -102.79902,178.94605 -87.48026,24.853 -178.13749,-31.8992 -201.79027,-118.02845 -26.8758,-97.8655 36.76781,-198.86566 133.25797,-224.63446 108.24739,-28.9087 219.60143,41.63462 247.47864,148.48746 30.94898,118.62691 -46.50014,240.34295 -163.71694,270.32285"
       id="path3358" />
    <path
       style="color:#000000;font-style:normal;font-variant:normal;font-weight:normal;font-stretch:normal;font-size:medium;line-height:normal;font-family:sans-serif;text-indent:0;text-align:start;text-decoration:none;text-decoration-line:none;text-decoration-style:solid;text-decoration-color:#000000;letter-spacing:normal;word-spacing:normal;text-transform:none;direction:ltr;block-progression:tb;writing-mode:lr-tb;baseline-shift:baseline;text-anchor:start;white-space:normal;clip-rule:nonzero;display:inline;overflow:visible;visibility:visible;opacity:1;isolation:auto;mix-blend-mode:normal;color-interpolation:sRGB;color-interpolation-filters:linearRGB;solid-color:#000000;solid-opacity:1;fill:#0000ff;fill-opacity:1;fill-rule:evenodd;stroke:none;stroke-width:2.8384254;stroke-linecap:butt;stroke-linejoin:miter;stroke-miterlimit:4;stroke-dasharray:none;stroke-dashoffset:0;stroke-opacity:1;color-rendering:auto;image-rendering:auto;shape-rendering:auto;text-rendering:auto;enable-background:accumulate"
       d="m 73.87321,882.46263 -19.723479,43.29175 -50.4778097,9.79864 39.2766067,30.40084 -5.332277,46.59664 43.995587,-24.50237 47.181332,18.99817 -1.46511,-5.5314 -10.61772,-40.01391 34.48949,-34.8537 -51.461639,-3.64502 -25.864981,-40.53964 z m 0.928461,12.66284 21.209872,33.24961 42.202557,2.98403 -28.28411,28.58803 9.91074,37.35072 -38.693123,-15.58115 -36.078105,20.09589 4.369754,-38.21658 -32.206642,-24.93142 41.393329,-8.03604 16.175728,-35.50309 z"
       id="path3356"
       inkscape:connector-curvature="0" />
    <g
       transform="scale(0.89733373,1.1144126)"
       style="font-style:normal;font-variant:normal;font-weight:bold;font-stretch:normal;font-size:87.67053223px;line-height:125%;font-family:'Courier 10 Pitch';-inkscape-font-specification:'Courier 10 Pitch, Bold';text-align:start;letter-spacing:0px;word-spacing:0px;writing-mode:lr-tb;text-anchor:start;fill:#000000;fill-opacity:1;stroke:#f9f9f9;stroke-width:5.02677917;stroke-linecap:butt;stroke-linejoin:miter;stroke-miterlimit:4;stroke-dasharray:none;stroke-opacity:1"
       id="text3336">
      <path
         d="m 33.334322,875.48446 c 4.471197,1.66574 8.504041,2.1041 12.887568,2.1041 13.325921,0 20.690246,-5.87393 20.690246,-16.39439 0,-8.67939 -4.997221,-13.41359 -15.605355,-15.60536 -8.854724,-1.84108 -13.764274,-2.27943 -13.764274,-6.75063 0,-3.50682 3.24381,-6.31228 8.591712,-6.31228 4.120515,0 7.188984,1.92875 8.942395,5.34791 1.052046,2.10409 1.402728,4.03284 4.90955,4.03284 3.33148,0 4.383526,-1.31506 4.383526,-4.55887 0,-0.17534 0,-0.26301 0,-0.43835 l -0.175341,-8.24103 c -0.08767,-3.68216 -0.789035,-4.55887 -3.594492,-4.55887 -2.367104,0 -3.41915,0.26301 -4.383526,2.36711 -3.682163,-1.57807 -7.276655,-2.36711 -11.221828,-2.36711 -11.660181,0 -19.72587,6.8383 -19.72587,16.56973 0,8.67939 5.084891,11.92319 14.728649,14.46564 9.643759,2.54245 14.553309,2.54245 14.553309,8.06569 0,4.03284 -3.15614,6.22461 -8.328701,6.22461 -5.786255,0 -9.643759,-2.1041 -11.923192,-6.57529 -1.57807,-3.06847 -2.016423,-5.52325 -5.347903,-5.52325 -3.594492,0 -4.821879,1.40273 -4.821879,5.08489 0,0.17535 0,0.26302 0,0.43836 l 0.263011,10.08211 c 0.08767,3.59449 1.402729,4.64654 4.90955,4.64654 1.928752,0 3.068469,-0.43836 4.032845,-2.1041 z"
         style="font-style:normal;font-variant:normal;font-weight:bold;font-stretch:normal;font-size:87.67053223px;line-height:125%;font-family:'Courier 10 Pitch';-inkscape-font-specification:'Courier 10 Pitch, Bold';text-align:start;writing-mode:lr-tb;text-anchor:start;stroke-width:5.02677917"
         id="path3339" />
      <path
         d="m 115.79394,851.02439 c 0,-10.52047 -4.12052,-15.43002 -17.008087,-15.43002 -11.923193,0 -18.849165,3.06847 -18.849165,7.53967 0,2.54244 1.57807,4.29585 4.646538,4.29585 4.032845,0 8.065689,-4.20818 13.501262,-4.20818 4.821882,0 7.364322,2.71778 7.364322,7.89035 0,0.26301 0,0.52602 0,0.78903 -3.41915,-0.61369 -6.575287,-0.8767 -9.556085,-0.8767 -12.361545,0 -19.375188,4.99722 -19.375188,13.50126 0,7.97802 5.523244,12.79989 14.72865,12.79989 5.435573,0 10.871143,-1.66574 15.605353,-4.82187 0.96438,2.98079 2.19176,3.76983 4.90955,3.76983 l 4.03285,0 c 3.68216,0 5.43557,-1.22739 5.43557,-4.64654 0,-3.06847 -1.66574,-4.73421 -4.73421,-4.73421 -0.26301,0 -0.43835,0 -0.70136,0 l 0,-15.86836 z m -10.34513,14.20262 c -3.33148,2.36711 -6.750628,3.50682 -10.695802,3.50682 -4.295856,0 -6.66296,-1.84108 -6.66296,-4.73421 0,-4.12051 3.682162,-6.31227 10.169781,-6.31227 2.104091,0 4.471201,0.35068 7.188981,0.96437 l 0,6.57529 z"
         style="font-style:normal;font-variant:normal;font-weight:bold;font-stretch:normal;font-size:87.67053223px;line-height:125%;font-family:'Courier 10 Pitch';-inkscape-font-specification:'Courier 10 Pitch, Bold';text-align:start;writing-mode:lr-tb;text-anchor:start;stroke-width:5.02677917"
         id="path3341" />
      <path
         d="m 173.96881,850.6737 c 0,-9.8191 -2.45477,-14.99166 -10.95881,-14.99166 -3.50683,0 -6.75064,1.31506 -9.20541,3.94518 -1.84108,-2.71779 -4.29586,-3.94518 -7.53967,-3.94518 -3.68216,0 -6.66296,1.4904 -8.76705,4.4712 0,-0.17534 0,-0.26301 0,-0.43835 0,-2.19177 -0.70136,-2.9808 -2.9808,-2.9808 l -5.78625,0 c -3.15614,0 -4.64654,1.13972 -4.64654,4.64654 0,3.06847 1.40273,4.73421 4.03284,4.73421 0.17535,0 0.43836,0 0.6137,0 l 0,20.77791 c -0.26301,0 -0.43835,0 -0.6137,0 -2.63011,0 -4.03284,1.57807 -4.03284,4.64654 0,3.50682 1.4904,4.73421 4.64654,4.73421 l 9.73143,0 c 3.15614,0 4.73421,-1.13972 4.73421,-4.73421 0,-3.06847 -1.40273,-4.64654 -4.12052,-4.64654 -0.17534,0 -0.35068,0 -0.61369,0 l 0,-14.99166 c 0,-4.90955 1.84108,-7.36432 4.55886,-7.36432 2.27944,0 3.41916,1.84108 3.41916,5.69858 l 0,24.19707 c 0,1.13971 0.96437,1.84108 2.54244,1.84108 l 7.18898,0 c 3.15614,0 4.73421,-1.13972 4.73421,-4.73421 0,-3.06847 -1.40273,-4.64654 -4.12051,-4.64654 -0.17534,0 -0.35068,0 -0.6137,0 l 0,-14.99166 c 0,-4.90955 1.84109,-7.36432 4.55887,-7.36432 2.27944,0 3.41915,1.84108 3.41915,5.69858 l 0,24.19707 c 0,1.13971 0.96438,1.84108 2.54245,1.84108 l 7.27665,0 c 3.15614,0 4.64654,-1.13972 4.64654,-4.73421 0,-3.06847 -1.40273,-4.64654 -4.03284,-4.64654 -0.17534,0 -0.35069,0 -0.6137,0 l 0,-16.21905 z"
         style="font-style:normal;font-variant:normal;font-weight:bold;font-stretch:normal;font-size:87.67053223px;line-height:125%;font-family:'Courier 10 Pitch';-inkscape-font-specification:'Courier 10 Pitch, Bold';text-align:start;writing-mode:lr-tb;text-anchor:start;stroke-width:5.02677917"
         id="path3343" />
      <path
         d="m 201.10832,883.90083 -5.43557,0 0,-11.66018 c 2.9808,2.45478 7.10131,3.76984 11.66018,3.76984 11.22183,0 19.72587,-8.59172 19.72587,-20.60258 0,-11.22183 -8.41637,-19.72587 -20.25189,-19.72587 -5.17257,0 -9.38075,2.01642 -12.27388,5.87393 l 0,-3.06847 c 0,-1.13972 -0.78903,-1.75341 -2.45477,-1.75341 l -6.57529,0 c -3.5945,0 -5.34791,1.05204 -5.34791,4.64654 0,3.06847 1.57807,4.73421 4.64654,4.73421 0.26301,0 0.43835,0 0.70137,0 l 0,37.78599 -2.54245,0 c -3.59449,0 -5.3479,1.13972 -5.3479,4.73421 0,3.5945 1.75341,4.64654 5.3479,4.64654 l 18.1478,0 c 3.59449,0 5.3479,-1.05204 5.3479,-4.64654 0,-3.59449 -1.75341,-4.73421 -5.3479,-4.73421 z m -5.26023,-27.96689 c 0,-6.57529 4.12051,-11.13416 9.73143,-11.13416 5.61091,0 9.73143,4.55887 9.73143,11.13416 0,6.57528 -4.20819,11.13415 -9.73143,11.13415 -5.61092,0 -9.73143,-4.55887 -9.73143,-11.13415 z"
         style="font-style:normal;font-variant:normal;font-weight:bold;font-stretch:normal;font-size:87.67053223px;line-height:125%;font-family:'Courier 10 Pitch';-inkscape-font-specification:'Courier 10 Pitch, Bold';text-align:start;writing-mode:lr-tb;text-anchor:start;stroke-width:5.02677917"
         id="path3345" />
      <path
         d="m 251.21751,829.72045 0,37.1723 -9.20541,0 c -3.59449,0 -5.3479,1.05205 -5.3479,4.64654 0,3.59449 1.75341,4.73421 5.3479,4.73421 l 29.01895,0 c 3.59449,0 5.3479,-1.13972 5.3479,-4.73421 0,-3.59449 -1.75341,-4.64654 -5.3479,-4.64654 l -9.20541,0 0,-44.79964 c 0,-1.13972 -0.96437,-1.84108 -2.54244,-1.84108 l -12.7999,0 c -3.59449,0 -5.43557,1.13972 -5.43557,4.73421 0,3.59449 1.84108,4.73421 5.43557,4.73421 l 4.73421,0 z"
         style="font-style:normal;font-variant:normal;font-weight:bold;font-stretch:normal;font-size:87.67053223px;line-height:125%;font-family:'Courier 10 Pitch';-inkscape-font-specification:'Courier 10 Pitch, Bold';text-align:start;writing-mode:lr-tb;text-anchor:start;stroke-width:5.02677917"
         id="path3347" />
      <path
         d="m 297.64455,859.0024 27.61622,0 c 4.47119,0 6.2246,-0.61369 6.2246,-4.38352 0,-9.99444 -8.41637,-18.84917 -21.39161,-18.84917 -14.20262,0 -23.32036,8.9424 -23.32036,20.77792 0,11.83552 9.20541,20.77791 23.32036,20.77791 12.53689,0 20.69025,-4.90954 20.69025,-9.81909 0,-2.54245 -1.57807,-4.20819 -3.8575,-4.20819 -3.15614,0 -7.27666,5.17256 -16.48206,5.17256 -7.10132,0 -11.3095,-3.06847 -12.7999,-9.46842 z m 0,-6.66296 c 1.4904,-5.61091 5.26023,-8.3287 11.48484,-8.3287 6.39995,0 10.60813,2.9808 11.57251,8.3287 l -23.05735,0 z"
         style="font-style:normal;font-variant:normal;font-weight:bold;font-stretch:normal;font-size:87.67053223px;line-height:125%;font-family:'Courier 10 Pitch';-inkscape-font-specification:'Courier 10 Pitch, Bold';text-align:start;writing-mode:lr-tb;text-anchor:start;stroke-width:5.02677917"
         id="path3349" />
    </g>
  </g>
</svg>
